<?xml version="1.0" encoding="utf-8"?>
<!-- Generator: Adobe Illustrator 24.0.1, SVG Export Plug-In . SVG Version: 6.00 Build 0)  -->
<svg version="1.1" id="Layer_1" xmlns="http://www.w3.org/2000/svg" xmlns:xlink="http://www.w3.org/1999/xlink" x="0px" y="0px"
	 viewBox="0 0 291.3 291.3" style="enable-background:new 0 0 291.3 291.3;" xml:space="preserve">
<style type="text/css">
	.st0{fill:#FFFFFF;}
</style>
<g>
	<path class="st0" d="M72.8,218.5H91V103.8c-6.8,1.9-13,5.4-18.2,10C72.8,113.9,72.8,218.5,72.8,218.5z M36.4,140.9v77.4l1.2,0.1h17
		v-77.7h-17C37.6,140.8,36.4,140.9,36.4,140.9z M0,179.6c0,14.1,7.3,26.3,18.2,33.1v-66.3C7.3,153.3,0,165.6,0,179.6z M109.2,218.5
		h18.2V108.9c-5.4-3.4-11.6-5.6-18.2-6.5V218.5z M253.7,140.8h-10.2c0.5-3.2,0.8-6.4,0.8-9.7c0-32.2-25.2-58.3-56.4-58.3
		c-16.9,0-32,7.8-42.3,20v125.7h108.1c20.7,0,37.6-17.4,37.6-38.9C291.3,158.2,274.5,140.8,253.7,140.8z"/>
</g>
</svg>
